<svg xmlns="http://www.w3.org/2000/svg" xmlns:xlink="http://www.w3.org/1999/xlink" xmlns:lucid="lucid" width="1874.81" height="1341.17"><g transform="translate(-220 -137.50004999999987)" lucid:page-tab-id="0_0"><path d="M0 0h3456v2656H0z" fill="#fff"/><path d="M240 186a6 6 0 0 1 6-6h148a6 6 0 0 1 6 6v108a6 6 0 0 1-6 6H246a6 6 0 0 1-6-6z" stroke="#3a414a" fill="#fff"/><use xlink:href="#a" transform="matrix(1,0,0,1,252,192) translate(27.907407407407412 53.77777777777778)"/><path d="M415.2 363.6a8 8 0 0 1 9.6 0l70.4 52.8a4.5 4.5 0 0 1 0 7.2l-70.4 52.8a8 8 0 0 1-9.6 0l-70.4-52.8a4.5 4.5 0 0 1 0-7.2z" stroke="#3a414a" fill="#fff"/><use xlink:href="#b" transform="matrix(1,0,0,1,345,365) translate(41.11611111111112 37.78777777777778)"/><use xlink:href="#c" transform="matrix(1,0,0,1,345,365) translate(27.566728395061727 64.45444444444445)"/><use xlink:href="#d" transform="matrix(1,0,0,1,345,365) translate(50.96179012345679 64.45444444444445)"/><use xlink:href="#e" transform="matrix(1,0,0,1,345,365) translate(68.83216049382716 91.1211111111111)"/><path d="M420.5 542.98l.07.88.2.84.33.8.45.73.56.66.67.55.73.45.8.33.84.2.88.07h648l1 .08 1 .24.93.4.87.52.78.66.66.78.53.87.38.94.24.98.08 1v48.14h-1v-48.1l-.07-.88-.2-.84-.33-.8-.45-.73-.56-.66-.67-.55-.73-.45-.8-.33-.84-.2-.88-.07h-648l-1-.08-1-.24-.93-.4-.87-.52-.78-.66-.66-.78-.53-.87-.38-.94-.24-.98-.08-1v-31.15h1zm0-52.44h-1V479h1z" stroke="#3a414a" stroke-width=".05" fill="#3a414a"/><path d="M420 478.5l.5-.03v.54h-1v-.53z" fill="#3a414a"/><path d="M420 478.48l.52-.04v.6h-1.04v-.6zm-.48.5h.96v-.5l-.48.05-.48-.03z" stroke="#3a414a" stroke-width=".05" fill="#3a414a"/><path d="M1080 617.88l-4.63-14.26h9.27z" fill="#3a414a"/><path d="M1080 619.5l-5.32-16.38h10.64zm-3.95-15.38l3.95 12.14 3.95-12.14z" stroke="#3a414a" stroke-width=".05" fill="#3a414a"/><use xlink:href="#f" transform="matrix(1,0,0,1,404.69135802469134,490.5393258426967) translate(0 14.222222222222223)"/><path d="M518.2 420.5H498v-1h20.2zm27.9 0h-4.3v-1h4.3z" stroke="#3a414a" stroke-width=".05" fill="#3a414a"/><path d="M498 420.5h-.54l.04-.5-.04-.5h.56z" fill="#3a414a"/><path d="M498.04 420.52h-.6l.04-.52-.05-.52h.6zm-.56-1l.05.48-.05.48h.5v-.96z" stroke="#3a414a" stroke-width=".05" fill="#3a414a"/><path d="M560.88 420l-14.27 4.63v-9.26z" fill="#3a414a"/><path d="M562.5 420l-16.4 5.32v-10.64zm-15.4 3.95l12.16-3.95-12.15-3.95z" stroke="#3a414a" stroke-width=".05" fill="#3a414a"/><use xlink:href="#g" transform="matrix(1,0,0,1,518.1975308641976,409.3333333333333) translate(0 14.222222222222223)"/><path d="M635.2 363.6a8 8 0 0 1 9.6 0l70.4 52.8a4.5 4.5 0 0 1 0 7.2l-70.4 52.8a8 8 0 0 1-9.6 0l-70.4-52.8a4.5 4.5 0 0 1 0-7.2z" stroke="#3a414a" fill="#fff"/><use xlink:href="#b" transform="matrix(1,0,0,1,565,365) translate(41.11611111111112 37.78777777777778)"/><use xlink:href="#c" transform="matrix(1,0,0,1,565,365) translate(27.566728395061727 64.45444444444445)"/><use xlink:href="#d" transform="matrix(1,0,0,1,565,365) translate(50.96179012345679 64.45444444444445)"/><use xlink:href="#h" transform="matrix(1,0,0,1,565,365) translate(68.83216049382716 91.1211111111111)"/><path d="M640.5 542.98l.07.88.2.84.33.8.45.73.56.66.67.55.73.45.8.33.84.2.88.07h428l1 .08 1 .24.93.4.87.52.78.66.66.78.53.87.38.94.24.98.08 1v48.14h-1v-48.1l-.07-.88-.2-.84-.33-.8-.45-.73-.56-.66-.67-.55-.73-.45-.8-.33-.84-.2-.88-.07h-428l-1-.08-1-.24-.93-.4-.87-.52-.78-.66-.66-.78-.53-.87-.38-.94-.24-.98-.08-1v-31.15h1zm0-52.44h-1V479h1z" stroke="#3a414a" stroke-width=".05" fill="#3a414a"/><path d="M640 478.5l.5-.03v.54h-1v-.53z" fill="#3a414a"/><path d="M640 478.48l.52-.04v.6h-1.04v-.6zm-.48.5h.96v-.5l-.48.05-.48-.03z" stroke="#3a414a" stroke-width=".05" fill="#3a414a"/><path d="M1080 617.88l-4.63-14.26h9.27z" fill="#3a414a"/><path d="M1080 619.5l-5.32-16.38h10.64zm-3.95-15.38l3.95 12.14 3.95-12.14z" stroke="#3a414a" stroke-width=".05" fill="#3a414a"/><use xlink:href="#f" transform="matrix(1,0,0,1,624.6913580246913,490.5393258426967) translate(0 14.222222222222223)"/><path d="M738.2 420.5H718v-1h20.2zm27.9 0h-4.3v-1h4.3z" stroke="#3a414a" stroke-width=".05" fill="#3a414a"/><path d="M718 420.5h-.54l.04-.5-.04-.5h.55z" fill="#3a414a"/><path d="M718.04 420.52h-.6l.04-.52-.05-.52h.6zm-.56-1l.05.48-.05.48h.5v-.96z" stroke="#3a414a" stroke-width=".05" fill="#3a414a"/><path d="M780.88 420l-14.27 4.63v-9.26z" fill="#3a414a"/><path d="M782.5 420l-16.4 5.32v-10.64zm-15.4 3.95l12.16-3.95-12.15-3.95z" stroke="#3a414a" stroke-width=".05" fill="#3a414a"/><use xlink:href="#g" transform="matrix(1,0,0,1,738.1975308641976,409.3333333333333) translate(0 14.222222222222223)"/><path d="M855.2 363.6a8 8 0 0 1 9.6 0l70.4 52.8a4.5 4.5 0 0 1 0 7.2l-70.4 52.8a8 8 0 0 1-9.6 0l-70.4-52.8a4.5 4.5 0 0 1 0-7.2z" stroke="#3a414a" fill="#fff"/><use xlink:href="#b" transform="matrix(1,0,0,1,785,365) translate(41.11611111111112 37.78777777777778)"/><use xlink:href="#c" transform="matrix(1,0,0,1,785,365) translate(27.566728395061727 64.45444444444445)"/><use xlink:href="#d" transform="matrix(1,0,0,1,785,365) translate(50.96179012345679 64.45444444444445)"/><use xlink:href="#i" transform="matrix(1,0,0,1,785,365) translate(68.83216049382716 91.1211111111111)"/><path d="M860.5 542.98l.07.88.2.84.33.8.45.73.56.66.67.55.73.45.8.33.84.2.88.07h208l1 .08 1 .24.93.4.87.52.78.66.66.78.53.87.38.94.24.98.08 1v48.14h-1v-48.1l-.07-.88-.2-.84-.33-.8-.45-.73-.56-.66-.67-.55-.73-.45-.8-.33-.84-.2-.88-.07h-208l-1-.08-1-.24-.93-.4-.87-.52-.78-.66-.66-.78-.53-.87-.38-.94-.24-.98-.08-1v-29.77h1zm0-51.06h-1V479h1z" stroke="#3a414a" stroke-width=".05" fill="#3a414a"/><path d="M860 478.5l.5-.03v.54h-1v-.53z" fill="#3a414a"/><path d="M860 478.48l.52-.04v.6h-1.04v-.6zm-.48.5h.96v-.5l-.48.05-.48-.03z" stroke="#3a414a" stroke-width=".05" fill="#3a414a"/><path d="M1080 617.88l-4.63-14.26h9.27z" fill="#3a414a"/><path d="M1080 619.5l-5.32-16.38h10.64zm-3.95-15.38l3.95 12.14 3.95-12.14z" stroke="#3a414a" stroke-width=".05" fill="#3a414a"/><use xlink:href="#f" transform="matrix(1,0,0,1,844.6913580246913,491.9162653825576) translate(0 14.222222222222223)"/><path d="M958.2 420.5H938v-1h20.2zm27.9 0h-4.3v-1h4.3z" stroke="#3a414a" stroke-width=".05" fill="#3a414a"/><path d="M938 420.5h-.54l.04-.5-.04-.5h.55z" fill="#3a414a"/><path d="M938.04 420.52h-.6l.04-.52-.05-.52h.6zm-.56-1l.05.48-.05.48h.5v-.96z" stroke="#3a414a" stroke-width=".05" fill="#3a414a"/><path d="M1000.88 420l-14.27 4.63v-9.26z" fill="#3a414a"/><path d="M1002.5 420l-16.4 5.32v-10.64zm-15.4 3.95l12.16-3.95-12.15-3.95z" stroke="#3a414a" stroke-width=".05" fill="#3a414a"/><use xlink:href="#g" transform="matrix(1,0,0,1,958.1975308641976,409.3333333333333) translate(0 14.222222222222223)"/><path d="M1075.2 363.6a8 8 0 0 1 9.6 0l70.4 52.8a4.5 4.5 0 0 1 0 7.2l-70.4 52.8a8 8 0 0 1-9.6 0l-70.4-52.8a4.5 4.5 0 0 1 0-7.2z" stroke="#3a414a" fill="#fff"/><use xlink:href="#b" transform="matrix(1,0,0,1,1005,365) translate(41.11611111111112 37.78777777777778)"/><use xlink:href="#c" transform="matrix(1,0,0,1,1005,365) translate(27.566728395061727 64.45444444444445)"/><use xlink:href="#d" transform="matrix(1,0,0,1,1005,365) translate(50.96179012345679 64.45444444444445)"/><use xlink:href="#j" transform="matrix(1,0,0,1,1005,365) translate(68.83216049382716 91.1211111111111)"/><path d="M1080.5 603.12h-1v-88.5h1zm0-109.83h-1V479h1z" stroke="#3a414a" stroke-width=".05" fill="#3a414a"/><path d="M1080 478.5l.5-.03v.54h-1v-.53z" fill="#3a414a"/><path d="M1080 478.48l.53-.04v.6h-1.06v-.6zm-.47.5h.94v-.5l-.47.05-.47-.03z" stroke="#3a414a" stroke-width=".05" fill="#3a414a"/><path d="M1080 617.88l-4.63-14.26h9.27z" fill="#3a414a"/><path d="M1080 619.5l-5.32-16.38h10.64zm-3.95-15.38l3.95 12.14 3.95-12.14z" stroke="#3a414a" stroke-width=".05" fill="#3a414a"/><use xlink:href="#f" transform="matrix(1,0,0,1,1064.6913580246915,493.2932049224185) translate(0 14.222222222222223)"/><path d="M1178.2 420.5H1158v-1h20.2zm27.9 0h-4.3v-1h4.3z" stroke="#3a414a" stroke-width=".05" fill="#3a414a"/><path d="M1158.02 420.5h-.56l.04-.5-.04-.5h.56z" fill="#3a414a"/><path d="M1158.04 420.52h-.6l.04-.52-.05-.52h.6zm-.56-1l.05.48-.05.48h.5v-.96z" stroke="#3a414a" stroke-width=".05" fill="#3a414a"/><path d="M1220.88 420l-14.27 4.63v-9.26z" fill="#3a414a"/><path d="M1222.5 420l-16.4 5.32v-10.64zm-15.4 3.95l12.16-3.95-12.15-3.95z" stroke="#3a414a" stroke-width=".05" fill="#3a414a"/><use xlink:href="#g" transform="matrix(1,0,0,1,1178.1975308641975,409.3333333333333) translate(0 14.222222222222223)"/><path d="M1295.2 363.6a8 8 0 0 1 9.6 0l70.4 52.8a4.5 4.5 0 0 1 0 7.2l-70.4 52.8a8 8 0 0 1-9.6 0l-70.4-52.8a4.5 4.5 0 0 1 0-7.2z" stroke="#3a414a" fill="#fff"/><use xlink:href="#b" transform="matrix(1,0,0,1,1225,365) translate(41.11611111111112 37.78777777777778)"/><use xlink:href="#c" transform="matrix(1,0,0,1,1225,365) translate(27.566728395061727 64.45444444444445)"/><use xlink:href="#d" transform="matrix(1,0,0,1,1225,365) translate(50.96179012345679 64.45444444444445)"/><use xlink:href="#k" transform="matrix(1,0,0,1,1225,365) translate(68.83216049382716 91.1211111111111)"/><path d="M1300.5 543.02l-.08 1-.24 1-.4.93-.52.87-.66.78-.78.66-.87.53-.94.38-.98.24-1 .08h-208l-.88.07-.84.2-.8.33-.73.45-.66.56-.55.67-.45.73-.33.8-.2.84-.07.88v48.1h-1v-48.14l.08-1 .24-1 .4-.93.52-.87.66-.78.78-.66.87-.53.94-.38.98-.24 1-.08h208l.88-.07.84-.2.8-.33.73-.45.66-.56.55-.67.45-.73.33-.8.2-.84.07-.88V516h1zm0-48.35h-1V479h1z" stroke="#3a414a" stroke-width=".05" fill="#3a414a"/><path d="M1300 478.5l.5-.03v.54h-1v-.53z" fill="#3a414a"/><path d="M1300 478.48l.53-.04v.6h-1.06v-.6zm-.47.5h.94v-.5l-.47.05-.47-.03z" stroke="#3a414a" stroke-width=".05" fill="#3a414a"/><path d="M1080 617.88l-4.63-14.26h9.27z" fill="#3a414a"/><path d="M1080 619.5l-5.32-16.38h10.64zm-3.95-15.38l3.95 12.14 3.95-12.14z" stroke="#3a414a" stroke-width=".05" fill="#3a414a"/><use xlink:href="#f" transform="matrix(1,0,0,1,1284.6913580246915,494.6701444622794) translate(0 14.222222222222223)"/><path d="M1398.2 420.5H1378v-1h20.2zm27.9 0h-4.3v-1h4.3z" stroke="#3a414a" stroke-width=".05" fill="#3a414a"/><path d="M1378.02 420.5h-.56l.04-.5-.04-.5h.56z" fill="#3a414a"/><path d="M1378.04 420.52h-.6l.04-.52-.05-.52h.6zm-.56-1l.05.48-.05.48h.5v-.96z" stroke="#3a414a" stroke-width=".05" fill="#3a414a"/><path d="M1440.88 420l-14.27 4.63v-9.26z" fill="#3a414a"/><path d="M1442.5 420l-16.4 5.32v-10.64zm-15.4 3.95l12.16-3.95-12.15-3.95z" stroke="#3a414a" stroke-width=".05" fill="#3a414a"/><use xlink:href="#g" transform="matrix(1,0,0,1,1398.1975308641975,409.3333333333333) translate(0 14.222222222222223)"/><path d="M1515.2 363.6a8 8 0 0 1 9.6 0l70.4 52.8a4.5 4.5 0 0 1 0 7.2l-70.4 52.8a8 8 0 0 1-9.6 0l-70.4-52.8a4.5 4.5 0 0 1 0-7.2z" stroke="#3a414a" fill="#fff"/><use xlink:href="#b" transform="matrix(1,0,0,1,1445,365) translate(41.11611111111112 37.78777777777778)"/><use xlink:href="#c" transform="matrix(1,0,0,1,1445,365) translate(27.566728395061727 64.45444444444445)"/><use xlink:href="#d" transform="matrix(1,0,0,1,1445,365) translate(50.96179012345679 64.45444444444445)"/><use xlink:href="#l" transform="matrix(1,0,0,1,1445,365) translate(68.83216049382716 91.1211111111111)"/><path d="M1520.5 543.02l-.08 1-.24 1-.4.93-.52.87-.66.78-.78.66-.87.53-.94.38-.98.24-1 .08h-428l-.88.07-.84.2-.8.33-.73.45-.66.56-.55.67-.45.73-.33.8-.2.84-.07.88v48.1h-1v-48.14l.08-1 .24-1 .4-.93.52-.87.66-.78.78-.66.87-.53.94-.38.98-.24 1-.08h428l.88-.07.84-.2.8-.33.73-.45.66-.56.55-.67.45-.73.33-.8.2-.84.07-.88v-20.1h1zm0-41.46h-1V479h1z" stroke="#3a414a" stroke-width=".05" fill="#3a414a"/><path d="M1520 478.5l.5-.03v.54h-1v-.53z" fill="#3a414a"/><path d="M1520 478.48l.53-.04v.6h-1.06v-.6zm-.47.5h.94v-.5l-.47.05-.47-.03z" stroke="#3a414a" stroke-width=".05" fill="#3a414a"/><path d="M1080 617.88l-4.63-14.26h9.27z" fill="#3a414a"/><path d="M1080 619.5l-5.32-16.38h10.64zm-3.95-15.38l3.95 12.14 3.95-12.14z" stroke="#3a414a" stroke-width=".05" fill="#3a414a"/><use xlink:href="#f" transform="matrix(1,0,0,1,1504.6913580246915,501.55484216158385) translate(0 14.222222222222223)"/><path d="M1618.2 420.5H1598v-1h20.2zm27.9 0h-4.3v-1h4.3z" stroke="#3a414a" stroke-width=".05" fill="#3a414a"/><path d="M1598.02 420.5h-.56l.04-.5-.04-.5h.56z" fill="#3a414a"/><path d="M1598.04 420.52h-.6l.04-.52-.05-.52h.6zm-.56-1l.05.48-.05.48h.5v-.96z" stroke="#3a414a" stroke-width=".05" fill="#3a414a"/><path d="M1660.88 420l-14.27 4.63v-9.26z" fill="#3a414a"/><path d="M1662.5 420l-16.4 5.32v-10.64zm-15.4 3.95l12.16-3.95-12.15-3.95z" stroke="#3a414a" stroke-width=".05" fill="#3a414a"/><use xlink:href="#g" transform="matrix(1,0,0,1,1618.1975308641975,409.3333333333333) translate(0 14.222222222222223)"/><path d="M1735.2 363.6a8 8 0 0 1 9.6 0l70.4 52.8a4.5 4.5 0 0 1 0 7.2l-70.4 52.8a8 8 0 0 1-9.6 0l-70.4-52.8a4.5 4.5 0 0 1 0-7.2z" stroke="#3a414a" fill="#fff"/><use xlink:href="#b" transform="matrix(1,0,0,1,1665,365) translate(41.11611111111112 37.78777777777778)"/><use xlink:href="#c" transform="matrix(1,0,0,1,1665,365) translate(27.566728395061727 64.45444444444445)"/><use xlink:href="#d" transform="matrix(1,0,0,1,1665,365) translate(50.96179012345679 64.45444444444445)"/><use xlink:href="#m" transform="matrix(1,0,0,1,1665,365) translate(68.83216049382716 91.1211111111111)"/><path d="M1740.5 543.02l-.08 1-.24 1-.4.93-.52.87-.66.78-.78.66-.87.53-.94.38-.98.24-1 .08h-648l-.88.07-.84.2-.8.33-.73.45-.66.56-.55.67-.45.73-.33.8-.2.84-.07.88v48.1h-1v-48.14l.08-1 .24-1 .4-.93.52-.87.66-.78.78-.66.87-.53.94-.38.98-.24 1-.08h648l.88-.07.84-.2.8-.33.73-.45.66-.56.55-.67.45-.73.33-.8.2-.84.07-.88v-29.73h1zm0-51.1h-1V479h1z" stroke="#3a414a" stroke-width=".05" fill="#3a414a"/><path d="M1740 478.5l.5-.03v.54h-1v-.53z" fill="#3a414a"/><path d="M1740 478.48l.53-.04v.6h-1.06v-.6zm-.47.5h.94v-.5l-.47.05-.47-.03z" stroke="#3a414a" stroke-width=".05" fill="#3a414a"/><path d="M1080 617.88l-4.63-14.26h9.27z" fill="#3a414a"/><path d="M1080 619.5l-5.32-16.38h10.64zm-3.95-15.38l3.95 12.14 3.95-12.14z" stroke="#3a414a" stroke-width=".05" fill="#3a414a"/><use xlink:href="#f" transform="matrix(1,0,0,1,1724.6913580246915,491.9162653825576) translate(0 14.222222222222223)"/><path d="M1838.2 420.5H1818v-1h20.2zm27.9 0h-4.3v-1h4.3z" stroke="#3a414a" stroke-width=".05" fill="#3a414a"/><path d="M1818.02 420.5h-.56l.04-.5-.04-.5h.56z" fill="#3a414a"/><path d="M1818.04 420.52h-.6l.04-.52-.05-.52h.6zm-.56-1l.05.48-.05.48h.5v-.96z" stroke="#3a414a" stroke-width=".05" fill="#3a414a"/><path d="M1880.88 420l-14.27 4.63v-9.26z" fill="#3a414a"/><path d="M1882.5 420l-16.4 5.32v-10.64zm-15.4 3.95l12.16-3.95-12.15-3.95z" stroke="#3a414a" stroke-width=".05" fill="#3a414a"/><use xlink:href="#g" transform="matrix(1,0,0,1,1838.1975308641975,409.3333333333333) translate(0 14.222222222222223)"/><path d="M1955.2 363.6a8 8 0 0 1 9.6 0l70.4 52.8a4.5 4.5 0 0 1 0 7.2l-70.4 52.8a8 8 0 0 1-9.6 0l-70.4-52.8a4.5 4.5 0 0 1 0-7.2z" stroke="#3a414a" fill="#fff"/><use xlink:href="#n" transform="matrix(1,0,0,1,1885,365) translate(54.665493827160496 59.02777777777778)"/><path d="M2062.2 420.5H2038v-1h24.2zm10.32-281.42l1 .24.93.4.87.52.78.66.66.78.53.87.38.94.24.98.08 1v263.85h-1v-263.8l-.07-.9-.2-.83-.33-.8-.45-.73-.56-.66-.67-.55-.73-.45-.8-.33-.84-.2-.88-.07H326.02l-.88.07-.84.2-.8.33-.73.45-.66.56-.55.67-.45.73-.33.8-.2.84-.07.88v17.6h-1v-17.64l.08-1 .24-1 .4-.93.52-.87.66-.78.78-.66.87-.53.94-.38.98-.24 1-.08h1745.54z" stroke="#3a414a" stroke-width=".05" fill="#3a414a"/><path d="M2038.02 420.5h-.56l.04-.5-.04-.5h.56z" fill="#3a414a"/><path d="M2038.04 420.52h-.6l.04-.52-.05-.52h.6zm-.56-1l.05.48-.05.48h.5v-.96z" stroke="#3a414a" stroke-width=".05" fill="#3a414a"/><path d="M320 177.88l-4.63-14.26h9.26z" fill="#3a414a"/><path d="M320 179.5l-5.32-16.38h10.64zm-3.95-15.38l3.95 12.14 3.95-12.14z" stroke="#3a414a" stroke-width=".05" fill="#3a414a"/><use xlink:href="#f" transform="matrix(1,0,0,1,2062.193473003698,409.3333333333333) translate(0 14.222222222222223)"/><path d="M1000 626a6 6 0 0 1 6-6h148a6 6 0 0 1 6 6v108a6 6 0 0 1-6 6h-148a6 6 0 0 1-6-6z" stroke="#3a414a" fill="#fff"/><use xlink:href="#o" transform="matrix(1,0,0,1,1012,632) translate(13.74074074074074 26.77777777777778)"/><use xlink:href="#p" transform="matrix(1,0,0,1,1012,632) translate(74.17283950617283 26.77777777777778)"/><use xlink:href="#q" transform="matrix(1,0,0,1,1012,632) translate(29.141975308641975 53.44444444444445)"/><use xlink:href="#r" transform="matrix(1,0,0,1,1012,632) translate(0.09876543209877298 80.11111111111111)"/><path d="M1000 826a6 6 0 0 1 6-6h148a6 6 0 0 1 6 6v108a6 6 0 0 1-6 6h-148a6 6 0 0 1-6-6z" stroke="#3a414a" fill="#fff"/><g><use xlink:href="#s" transform="matrix(1,0,0,1,1012,832) translate(19.604938271604937 53.77777777777778)"/><use xlink:href="#t" transform="matrix(1,0,0,1,1012,832) translate(91.08641975308642 53.77777777777778)"/></g><path d="M1080 741v62.12" stroke="#3a414a" fill="none"/><path d="M1080.5 741h-1v-.5h1z" stroke="#3a414a" stroke-width=".05" fill="#3a414a"/><path d="M1080 817.88l-4.63-14.26h9.27z" stroke="#3a414a" fill="#3a414a"/><path d="M1075.28 1023.7a7.64 7.64 0 0 1 9.44 0l130.56 102.6a4.7 4.7 0 0 1 0 7.4l-130.56 102.6a7.64 7.64 0 0 1-9.44 0l-130.56-102.6a4.7 4.7 0 0 1 0-7.4z" stroke="#3a414a" fill="#fff"/><g><use xlink:href="#u" transform="matrix(1,0,0,1,945,1025) translate(79.51117283950617 70.27777777777777)"/><use xlink:href="#v" transform="matrix(1,0,0,1,945,1025) translate(96.7333950617284 70.27777777777777)"/><use xlink:href="#w" transform="matrix(1,0,0,1,945,1025) translate(133.77043209876544 70.27777777777777)"/><use xlink:href="#x" transform="matrix(1,0,0,1,945,1025) translate(66.54820987654321 96.94444444444446)"/><use xlink:href="#y" transform="matrix(1,0,0,1,945,1025) translate(108.52351851851851 96.94444444444446)"/><use xlink:href="#z" transform="matrix(1,0,0,1,945,1025) translate(127.04203703703703 96.94444444444446)"/><use xlink:href="#A" transform="matrix(1,0,0,1,945,1025) translate(186.23956790123458 96.94444444444446)"/><use xlink:href="#B" transform="matrix(1,0,0,1,945,1025) translate(73.30746913580246 123.61111111111111)"/><use xlink:href="#C" transform="matrix(1,0,0,1,945,1025) translate(72.96796296296296 150.27777777777777)"/></g><path d="M1080 941v64.2" stroke="#3a414a" fill="none"/><path d="M1080.5 941h-1v-.5h1z" stroke="#3a414a" stroke-width=".05" fill="#3a414a"/><path d="M1080 1019.96l-4.63-14.27h9.27z" stroke="#3a414a" fill="#3a414a"/><path d="M1258.1 1124.02l-.1 1-.23 1-.4.93-.52.87-.67.78-.77.66-.86.53-.94.38-1 .24-1 .08h-33.5v-1h33.47l.88-.07.84-.2.78-.33.74-.45.65-.56.56-.67.45-.73.34-.8.2-.84.07-.88V987.12h1zm-5.5-244.44l1 .24.94.4.87.52.78.66.67.78.53.87.4.94.23.98.1 1v79.8h-1v-79.76l-.08-.88-.2-.84-.34-.8-.45-.73-.56-.66-.65-.55-.74-.45-.8-.33-.83-.2-.88-.07h-74.7v-1h74.74z" stroke="#3a414a" stroke-width=".05" fill="#3a414a"/><path d="M1218.1 1130.5h-.56l.05-.5-.06-.5h.56z" fill="#3a414a"/><path d="M1218.12 1130.53h-.6l.04-.53-.05-.53h.62zm-.55-1l.04.47-.03.47h.5v-.94z" stroke="#3a414a" stroke-width=".05" fill="#3a414a"/><path d="M1176.38 884.63l-14.26-4.63 14.26-4.63z" fill="#3a414a"/><path d="M1176.88 885.32L1160.5 880l16.38-5.32zm-13.14-5.32l12.14 3.95v-7.9z" stroke="#3a414a" stroke-width=".05" fill="#3a414a"/><g><use xlink:href="#f" transform="matrix(1,0,0,1,1242.2771595880185,965.7904075516699) translate(0 14.222222222222223)"/></g><path d="M1080.5 1284.45h-1v-4.15h1zm0-25.5h-1v-20.02h1z" stroke="#3a414a" stroke-width=".05" fill="#3a414a"/><path d="M1080 1238.43l.5-.04v.54h-1v-.55z" fill="#3a414a"/><path d="M1080 1238.4l.53-.03v.6h-1.06v-.6zm-.47.5h.94v-.48l-.47.03-.47-.03z" stroke="#3a414a" stroke-width=".05" fill="#3a414a"/><path d="M1080 1299.2l-4.63-14.25h9.27z" fill="#3a414a"/><path d="M1080 1300.83l-5.32-16.38h10.64zm-3.95-15.38l3.95 12.15 3.95-12.15z" stroke="#3a414a" stroke-width=".05" fill="#3a414a"/><g><use xlink:href="#g" transform="matrix(1,0,0,1,1068.1975308641975,1258.9629800932942) translate(0 14.222222222222223)"/></g><path d="M1000 1307.33a6 6 0 0 1 6-6h148a6 6 0 0 1 6 6v145.34a6 6 0 0 1-6 6h-148a6 6 0 0 1-6-6z" stroke="#3a414a" fill="#fff"/><g><use xlink:href="#D" transform="matrix(1,0,0,1,1012,1313.3333333333333) translate(2.6296296296296333 21.96527777777778)"/><use xlink:href="#y" transform="matrix(1,0,0,1,1012,1313.3333333333333) translate(61.827160493827165 21.96527777777778)"/><use xlink:href="#E" transform="matrix(1,0,0,1,1012,1313.3333333333333) translate(80.34567901234568 21.96527777777778)"/><use xlink:href="#F" transform="matrix(1,0,0,1,1012,1313.3333333333333) translate(21.796296296296298 48.63194444444444)"/><use xlink:href="#G" transform="matrix(1,0,0,1,1012,1313.3333333333333) translate(78.52469135802468 48.63194444444444)"/><use xlink:href="#H" transform="matrix(1,0,0,1,1012,1313.3333333333333) translate(103.15432098765433 48.63194444444444)"/><use xlink:href="#I" transform="matrix(1,0,0,1,1012,1313.3333333333333) translate(4.543209876543216 75.29861111111111)"/><use xlink:href="#J" transform="matrix(1,0,0,1,1012,1313.3333333333333) translate(71.08641975308642 75.29861111111111)"/><use xlink:href="#K" transform="matrix(1,0,0,1,1012,1313.3333333333333) translate(93.24691358024691 75.29861111111111)"/><use xlink:href="#L" transform="matrix(1,0,0,1,1012,1313.3333333333333) translate(8.864197530864196 101.96527777777777)"/><use xlink:href="#M" transform="matrix(1,0,0,1,1012,1313.3333333333333) translate(27.382716049382715 101.96527777777777)"/><use xlink:href="#I" transform="matrix(1,0,0,1,1012,1313.3333333333333) translate(44.60493827160494 101.96527777777777)"/><use xlink:href="#N" transform="matrix(1,0,0,1,1012,1313.3333333333333) translate(111.14814814814815 101.96527777777777)"/><use xlink:href="#O" transform="matrix(1,0,0,1,1012,1313.3333333333333) translate(43.370370370370374 128.63194444444446)"/></g><defs><path fill="#3a414a" d="M30-248c87 1 191-15 191 75 0 78-77 80-158 76V0H30v-248zm33 125c57 0 124 11 124-50 0-59-68-47-124-48v98" id="P"/><path fill="#3a414a" d="M114-163C36-179 61-72 57 0H25l-1-190h30c1 12-1 29 2 39 6-27 23-49 58-41v29" id="Q"/><path fill="#3a414a" d="M100-194c62-1 85 37 85 99 1 63-27 99-86 99S16-35 15-95c0-66 28-99 85-99zM99-20c44 1 53-31 53-75 0-43-8-75-51-75s-53 32-53 75 10 74 51 75" id="R"/><path fill="#3a414a" d="M96-169c-40 0-48 33-48 73s9 75 48 75c24 0 41-14 43-38l32 2c-6 37-31 61-74 61-59 0-76-41-82-99-10-93 101-131 147-64 4 7 5 14 7 22l-32 3c-4-21-16-35-41-35" id="S"/><path fill="#3a414a" d="M100-194c63 0 86 42 84 106H49c0 40 14 67 53 68 26 1 43-12 49-29l28 8c-11 28-37 45-77 45C44 4 14-33 15-96c1-61 26-98 85-98zm52 81c6-60-76-77-97-28-3 7-6 17-6 28h103" id="T"/><path fill="#3a414a" d="M135-143c-3-34-86-38-87 0 15 53 115 12 119 90S17 21 10-45l28-5c4 36 97 45 98 0-10-56-113-15-118-90-4-57 82-63 122-42 12 7 21 19 24 35" id="U"/><g id="a"><use transform="matrix(0.06172839506172839,0,0,0.06172839506172839,0,0)" xlink:href="#P"/><use transform="matrix(0.06172839506172839,0,0,0.06172839506172839,14.814814814814813,0)" xlink:href="#Q"/><use transform="matrix(0.06172839506172839,0,0,0.06172839506172839,22.160493827160494,0)" xlink:href="#R"/><use transform="matrix(0.06172839506172839,0,0,0.06172839506172839,34.50617283950617,0)" xlink:href="#S"/><use transform="matrix(0.06172839506172839,0,0,0.06172839506172839,45.61728395061728,0)" xlink:href="#T"/><use transform="matrix(0.06172839506172839,0,0,0.06172839506172839,57.962962962962955,0)" xlink:href="#U"/><use transform="matrix(0.06172839506172839,0,0,0.06172839506172839,69.07407407407406,0)" xlink:href="#U"/></g><path fill="#3a414a" d="M24 0v-261h32V0H24" id="V"/><path fill="#3a414a" d="M24-231v-30h32v30H24zM24 0v-190h32V0H24" id="W"/><path fill="#3a414a" d="M143 0L79-87 56-68V0H24v-261h32v163l83-92h37l-77 82L181 0h-38" id="X"/><path fill="#3a414a" d="M85-194c31 0 48 13 60 33l-1-100h32l1 261h-30c-2-10 0-23-3-31C134-8 116 4 85 4 32 4 16-35 15-94c0-66 23-100 70-100zm9 24c-40 0-46 34-46 75 0 40 6 74 45 74 42 0 51-32 51-76 0-42-9-74-50-73" id="Y"/><g id="b"><use transform="matrix(0.06172839506172839,0,0,0.06172839506172839,0,0)" xlink:href="#S"/><use transform="matrix(0.06172839506172839,0,0,0.06172839506172839,11.11111111111111,0)" xlink:href="#V"/><use transform="matrix(0.06172839506172839,0,0,0.06172839506172839,15.987654320987653,0)" xlink:href="#W"/><use transform="matrix(0.06172839506172839,0,0,0.06172839506172839,20.864197530864196,0)" xlink:href="#S"/><use transform="matrix(0.06172839506172839,0,0,0.06172839506172839,31.975308641975307,0)" xlink:href="#X"/><use transform="matrix(0.06172839506172839,0,0,0.06172839506172839,43.08641975308642,0)" xlink:href="#T"/><use transform="matrix(0.06172839506172839,0,0,0.06172839506172839,55.432098765432094,0)" xlink:href="#Y"/></g><path fill="#3a414a" d="M117-194c89-4 53 116 60 194h-32v-121c0-31-8-49-39-48C34-167 62-67 57 0H25l-1-190h30c1 10-1 24 2 32 11-22 29-35 61-36" id="Z"/><g id="c"><use transform="matrix(0.06172839506172839,0,0,0.06172839506172839,0,0)" xlink:href="#W"/><use transform="matrix(0.06172839506172839,0,0,0.06172839506172839,4.876543209876543,0)" xlink:href="#Z"/></g><path fill="#3a414a" d="M84 4C-5 8 30-112 23-190h32v120c0 31 7 50 39 49 72-2 45-101 50-169h31l1 190h-30c-1-10 1-25-2-33-11 22-28 36-60 37" id="aa"/><path fill="#3a414a" d="M210-169c-67 3-38 105-44 169h-31v-121c0-29-5-50-35-48C34-165 62-65 56 0H25l-1-190h30c1 10-1 24 2 32 10-44 99-50 107 0 11-21 27-35 58-36 85-2 47 119 55 194h-31v-121c0-29-5-49-35-48" id="ab"/><g id="d"><use transform="matrix(0.06172839506172839,0,0,0.06172839506172839,0,0)" xlink:href="#S"/><use transform="matrix(0.06172839506172839,0,0,0.06172839506172839,11.11111111111111,0)" xlink:href="#R"/><use transform="matrix(0.06172839506172839,0,0,0.06172839506172839,23.45679012345679,0)" xlink:href="#V"/><use transform="matrix(0.06172839506172839,0,0,0.06172839506172839,28.333333333333336,0)" xlink:href="#aa"/><use transform="matrix(0.06172839506172839,0,0,0.06172839506172839,40.67901234567901,0)" xlink:href="#ab"/><use transform="matrix(0.06172839506172839,0,0,0.06172839506172839,59.1358024691358,0)" xlink:href="#Z"/></g><path fill="#3a414a" d="M27 0v-27h64v-190l-56 39v-29l58-41h29v221h61V0H27" id="ac"/><use transform="matrix(0.06172839506172839,0,0,0.06172839506172839,0,0)" xlink:href="#ac" id="e"/><path fill="#333" d="M146-102V0H94v-102L6-248h54l60 105 60-105h54" id="ad"/><path fill="#333" d="M185-48c-13 30-37 53-82 52C43 2 14-33 14-96s30-98 90-98c62 0 83 45 84 108H66c0 31 8 55 39 56 18 0 30-7 34-22zm-45-69c5-46-57-63-70-21-2 6-4 13-4 21h74" id="ae"/><path fill="#333" d="M137-138c1-29-70-34-71-4 15 46 118 7 119 86 1 83-164 76-172 9l43-7c4 19 20 25 44 25 33 8 57-30 24-41C81-84 22-81 20-136c-2-80 154-74 161-7" id="af"/><g id="f"><use transform="matrix(0.04938271604938272,0,0,0.04938271604938272,0,0)" xlink:href="#ad"/><use transform="matrix(0.04938271604938272,0,0,0.04938271604938272,10.864197530864198,0)" xlink:href="#ae"/><use transform="matrix(0.04938271604938272,0,0,0.04938271604938272,20.74074074074074,0)" xlink:href="#af"/></g><path fill="#333" d="M175 0L67-191c6 58 2 128 3 191H24v-248h59L193-55c-6-58-2-129-3-193h46V0h-61" id="ag"/><path fill="#333" d="M110-194c64 0 96 36 96 99 0 64-35 99-97 99-61 0-95-36-95-99 0-62 34-99 96-99zm-1 164c35 0 45-28 45-65 0-40-10-65-43-65-34 0-45 26-45 65 0 36 10 65 43 65" id="ah"/><g id="g"><use transform="matrix(0.04938271604938272,0,0,0.04938271604938272,0,0)" xlink:href="#ag"/><use transform="matrix(0.04938271604938272,0,0,0.04938271604938272,12.790123456790125,0)" xlink:href="#ah"/></g><path fill="#3a414a" d="M101-251c82-7 93 87 43 132L82-64C71-53 59-42 53-27h129V0H18c2-99 128-94 128-182 0-28-16-43-45-43s-46 15-49 41l-32-3c6-41 34-60 81-64" id="ai"/><use transform="matrix(0.06172839506172839,0,0,0.06172839506172839,0,0)" xlink:href="#ai" id="h"/><path fill="#3a414a" d="M126-127c33 6 58 20 58 59 0 88-139 92-164 29-3-8-5-16-6-25l32-3c6 27 21 44 54 44 32 0 52-15 52-46 0-38-36-46-79-43v-28c39 1 72-4 72-42 0-27-17-43-46-43-28 0-47 15-49 41l-32-3c6-42 35-63 81-64 48-1 79 21 79 65 0 36-21 52-52 59" id="aj"/><use transform="matrix(0.06172839506172839,0,0,0.06172839506172839,0,0)" xlink:href="#aj" id="i"/><path fill="#3a414a" d="M155-56V0h-30v-56H8v-25l114-167h33v167h35v25h-35zm-30-156c-27 46-58 90-88 131h88v-131" id="ak"/><use transform="matrix(0.06172839506172839,0,0,0.06172839506172839,0,0)" xlink:href="#ak" id="j"/><path fill="#3a414a" d="M54-142c48-35 137-8 131 61C196 18 31 33 14-55l32-4c7 23 22 37 52 37 35-1 51-22 54-58 4-55-73-65-99-34H22l8-134h141v27H59" id="al"/><use transform="matrix(0.06172839506172839,0,0,0.06172839506172839,0,0)" xlink:href="#al" id="k"/><path fill="#3a414a" d="M110-160c48 1 74 30 74 79 0 53-28 85-80 85-65 0-83-55-86-122-5-90 50-162 133-122 14 7 22 21 27 39l-31 6c-5-40-67-38-82-6-9 19-15 44-15 74 11-20 30-34 60-33zm-7 138c34 0 49-23 49-58s-16-56-50-56c-29 0-50 16-49 49 1 36 15 65 50 65" id="am"/><use transform="matrix(0.06172839506172839,0,0,0.06172839506172839,0,0)" xlink:href="#am" id="l"/><path fill="#3a414a" d="M64 0c3-98 48-159 88-221H18v-27h164v26C143-157 98-101 97 0H64" id="an"/><use transform="matrix(0.06172839506172839,0,0,0.06172839506172839,0,0)" xlink:href="#an" id="m"/><g id="n"><use transform="matrix(0.06172839506172839,0,0,0.06172839506172839,0,0)" xlink:href="#T"/><use transform="matrix(0.06172839506172839,0,0,0.06172839506172839,12.345679012345679,0)" xlink:href="#V"/><use transform="matrix(0.06172839506172839,0,0,0.06172839506172839,17.22222222222222,0)" xlink:href="#U"/><use transform="matrix(0.06172839506172839,0,0,0.06172839506172839,28.333333333333332,0)" xlink:href="#T"/></g><path fill="#3a414a" d="M108 0H70L1-190h34L89-25l56-165h34" id="ao"/><g id="o"><use transform="matrix(0.06172839506172839,0,0,0.06172839506172839,0,0)" xlink:href="#ab"/><use transform="matrix(0.06172839506172839,0,0,0.06172839506172839,18.456790123456788,0)" xlink:href="#R"/><use transform="matrix(0.06172839506172839,0,0,0.06172839506172839,30.80246913580247,0)" xlink:href="#ao"/><use transform="matrix(0.06172839506172839,0,0,0.06172839506172839,41.91358024691358,0)" xlink:href="#T"/></g><path fill="#3a414a" d="M115-194c55 1 70 41 70 98S169 2 115 4C84 4 66-9 55-30l1 105H24l-1-265h31l2 30c10-21 28-34 59-34zm-8 174c40 0 45-34 45-75s-6-73-45-74c-42 0-51 32-51 76 0 43 10 73 51 73" id="ap"/><path fill="#3a414a" d="M59-47c-2 24 18 29 38 22v24C64 9 27 4 27-40v-127H5v-23h24l9-43h21v43h35v23H59v120" id="aq"/><g id="p"><use transform="matrix(0.06172839506172839,0,0,0.06172839506172839,0,0)" xlink:href="#W"/><use transform="matrix(0.06172839506172839,0,0,0.06172839506172839,4.876543209876543,0)" xlink:href="#Z"/><use transform="matrix(0.06172839506172839,0,0,0.06172839506172839,17.22222222222222,0)" xlink:href="#ap"/><use transform="matrix(0.06172839506172839,0,0,0.06172839506172839,29.5679012345679,0)" xlink:href="#aa"/><use transform="matrix(0.06172839506172839,0,0,0.06172839506172839,41.913580246913575,0)" xlink:href="#aq"/></g><path fill="#3a414a" d="M141-36C126-15 110 5 73 4 37 3 15-17 15-53c-1-64 63-63 125-63 3-35-9-54-41-54-24 1-41 7-42 31l-33-3c5-37 33-52 76-52 45 0 72 20 72 64v82c-1 20 7 32 28 27v20c-31 9-61-2-59-35zM48-53c0 20 12 33 32 33 41-3 63-29 60-74-43 2-92-5-92 41" id="ar"/><path fill="#3a414a" d="M145-31C134-9 116 4 85 4 32 4 16-35 15-94c0-59 17-99 70-100 32-1 48 14 60 33 0-11-1-24 2-32h30l-1 268h-32zM93-21c41 0 51-33 51-76s-8-73-50-73c-40 0-46 35-46 75s5 74 45 74" id="as"/><g id="q"><use transform="matrix(0.06172839506172839,0,0,0.06172839506172839,0,0)" xlink:href="#T"/><use transform="matrix(0.06172839506172839,0,0,0.06172839506172839,12.345679012345679,0)" xlink:href="#ar"/><use transform="matrix(0.06172839506172839,0,0,0.06172839506172839,24.691358024691358,0)" xlink:href="#as"/><use transform="matrix(0.06172839506172839,0,0,0.06172839506172839,37.03703703703704,0)" xlink:href="#aa"/><use transform="matrix(0.06172839506172839,0,0,0.06172839506172839,49.382716049382715,0)" xlink:href="#ar"/><use transform="matrix(0.06172839506172839,0,0,0.06172839506172839,61.72839506172839,0)" xlink:href="#V"/><use transform="matrix(0.06172839506172839,0,0,0.06172839506172839,66.60493827160494,0)" xlink:href="#U"/></g><path fill="#3a414a" d="M26 75v-336h71v23H56V52h41v23H26" id="at"/><path fill="#3a414a" d="M68-38c1 34 0 65-14 84H32c9-13 17-26 17-46H33v-38h35" id="au"/><path fill="#3a414a" d="M3 75V52h41v-290H3v-23h71V75H3" id="av"/><g id="r"><use transform="matrix(0.06172839506172839,0,0,0.06172839506172839,0,0)" xlink:href="#at"/><use transform="matrix(0.06172839506172839,0,0,0.06172839506172839,6.172839506172839,0)" xlink:href="#ac"/><use transform="matrix(0.06172839506172839,0,0,0.06172839506172839,18.51851851851852,0)" xlink:href="#au"/><use transform="matrix(0.06172839506172839,0,0,0.06172839506172839,24.691358024691358,0)" xlink:href="#ai"/><use transform="matrix(0.06172839506172839,0,0,0.06172839506172839,37.03703703703704,0)" xlink:href="#au"/><use transform="matrix(0.06172839506172839,0,0,0.06172839506172839,43.20987654320988,0)" xlink:href="#aj"/><use transform="matrix(0.06172839506172839,0,0,0.06172839506172839,55.55555555555556,0)" xlink:href="#au"/><use transform="matrix(0.06172839506172839,0,0,0.06172839506172839,61.7283950617284,0)" xlink:href="#ak"/><use transform="matrix(0.06172839506172839,0,0,0.06172839506172839,74.07407407407408,0)" xlink:href="#au"/><use transform="matrix(0.06172839506172839,0,0,0.06172839506172839,80.24691358024691,0)" xlink:href="#al"/><use transform="matrix(0.06172839506172839,0,0,0.06172839506172839,92.5925925925926,0)" xlink:href="#au"/><use transform="matrix(0.06172839506172839,0,0,0.06172839506172839,98.76543209876543,0)" xlink:href="#am"/><use transform="matrix(0.06172839506172839,0,0,0.06172839506172839,111.11111111111111,0)" xlink:href="#au"/><use transform="matrix(0.06172839506172839,0,0,0.06172839506172839,117.28395061728395,0)" xlink:href="#an"/><use transform="matrix(0.06172839506172839,0,0,0.06172839506172839,129.62962962962962,0)" xlink:href="#av"/></g><path fill="#3a414a" d="M177-190C167-65 218 103 67 71c-23-6-38-20-44-43l32-5c15 47 100 32 89-28v-30C133-14 115 1 83 1 29 1 15-40 15-95c0-56 16-97 71-98 29-1 48 16 59 35 1-10 0-23 2-32h30zM94-22c36 0 50-32 50-73 0-42-14-75-50-75-39 0-46 34-46 75s6 73 46 73" id="aw"/><path fill="#3a414a" d="M179-190L93 31C79 59 56 82 12 73V49c39 6 53-20 64-50L1-190h34L92-34l54-156h33" id="ax"/><g id="s"><use transform="matrix(0.06172839506172839,0,0,0.06172839506172839,0,0)" xlink:href="#aw"/><use transform="matrix(0.06172839506172839,0,0,0.06172839506172839,12.345679012345679,0)" xlink:href="#Q"/><use transform="matrix(0.06172839506172839,0,0,0.06172839506172839,19.691358024691358,0)" xlink:href="#ar"/><use transform="matrix(0.06172839506172839,0,0,0.06172839506172839,32.03703703703704,0)" xlink:href="#ao"/><use transform="matrix(0.06172839506172839,0,0,0.06172839506172839,43.14814814814815,0)" xlink:href="#W"/><use transform="matrix(0.06172839506172839,0,0,0.06172839506172839,48.0246913580247,0)" xlink:href="#aq"/><use transform="matrix(0.06172839506172839,0,0,0.06172839506172839,54.19753086419754,0)" xlink:href="#ax"/></g><path fill="#3a414a" d="M18-150v-26h174v26H18zm0 90v-26h174v26H18" id="ay"/><g id="t"><use transform="matrix(0.06172839506172839,0,0,0.06172839506172839,0,0)" xlink:href="#ay"/><use transform="matrix(0.06172839506172839,0,0,0.06172839506172839,12.962962962962962,0)" xlink:href="#al"/></g><path fill="#3a414a" d="M101-234c-31-9-42 10-38 44h38v23H63V0H32v-167H5v-23h27c-7-52 17-82 69-68v24" id="az"/><g id="u"><use transform="matrix(0.06172839506172839,0,0,0.06172839506172839,0,0)" xlink:href="#W"/><use transform="matrix(0.06172839506172839,0,0,0.06172839506172839,4.876543209876543,0)" xlink:href="#az"/></g><path fill="#3a414a" d="M106-169C34-169 62-67 57 0H25v-261h32l-1 103c12-21 28-36 61-36 89 0 53 116 60 194h-32v-121c2-32-8-49-39-48" id="aA"/><g id="v"><use transform="matrix(0.06172839506172839,0,0,0.06172839506172839,0,0)" xlink:href="#aq"/><use transform="matrix(0.06172839506172839,0,0,0.06172839506172839,6.172839506172839,0)" xlink:href="#aA"/><use transform="matrix(0.06172839506172839,0,0,0.06172839506172839,18.51851851851852,0)" xlink:href="#T"/></g><path fill="#3a414a" d="M115-194c53 0 69 39 70 98 0 66-23 100-70 100C84 3 66-7 56-30L54 0H23l1-261h32v101c10-23 28-34 59-34zm-8 174c40 0 45-34 45-75 0-40-5-75-45-74-42 0-51 32-51 76 0 43 10 73 51 73" id="aB"/><g id="w"><use transform="matrix(0.06172839506172839,0,0,0.06172839506172839,0,0)" xlink:href="#aB"/><use transform="matrix(0.06172839506172839,0,0,0.06172839506172839,12.345679012345679,0)" xlink:href="#R"/><use transform="matrix(0.06172839506172839,0,0,0.06172839506172839,24.691358024691358,0)" xlink:href="#ar"/><use transform="matrix(0.06172839506172839,0,0,0.06172839506172839,37.03703703703704,0)" xlink:href="#Q"/><use transform="matrix(0.06172839506172839,0,0,0.06172839506172839,44.382716049382715,0)" xlink:href="#Y"/></g><g id="x"><use transform="matrix(0.06172839506172839,0,0,0.06172839506172839,0,0)" xlink:href="#aA"/><use transform="matrix(0.06172839506172839,0,0,0.06172839506172839,12.345679012345679,0)" xlink:href="#ar"/><use transform="matrix(0.06172839506172839,0,0,0.06172839506172839,24.691358024691358,0)" xlink:href="#U"/></g><use transform="matrix(0.06172839506172839,0,0,0.06172839506172839,0,0)" xlink:href="#ar" id="y"/><g id="z"><use transform="matrix(0.06172839506172839,0,0,0.06172839506172839,0,0)" xlink:href="#ap"/><use transform="matrix(0.06172839506172839,0,0,0.06172839506172839,12.345679012345679,0)" xlink:href="#ar"/><use transform="matrix(0.06172839506172839,0,0,0.06172839506172839,24.691358024691358,0)" xlink:href="#W"/><use transform="matrix(0.06172839506172839,0,0,0.06172839506172839,29.5679012345679,0)" xlink:href="#S"/><use transform="matrix(0.06172839506172839,0,0,0.06172839506172839,40.67901234567901,0)" xlink:href="#T"/></g><g id="A"><use transform="matrix(0.06172839506172839,0,0,0.06172839506172839,0,0)" xlink:href="#W"/><use transform="matrix(0.06172839506172839,0,0,0.06172839506172839,4.876543209876543,0)" xlink:href="#Z"/></g><g id="B"><use transform="matrix(0.06172839506172839,0,0,0.06172839506172839,0,0)" xlink:href="#as"/><use transform="matrix(0.06172839506172839,0,0,0.06172839506172839,12.345679012345679,0)" xlink:href="#aa"/><use transform="matrix(0.06172839506172839,0,0,0.06172839506172839,24.691358024691358,0)" xlink:href="#ar"/><use transform="matrix(0.06172839506172839,0,0,0.06172839506172839,37.03703703703704,0)" xlink:href="#Q"/><use transform="matrix(0.06172839506172839,0,0,0.06172839506172839,44.382716049382715,0)" xlink:href="#Y"/><use transform="matrix(0.06172839506172839,0,0,0.06172839506172839,56.72839506172839,0)" xlink:href="#T"/><use transform="matrix(0.06172839506172839,0,0,0.06172839506172839,69.07407407407408,0)" xlink:href="#Z"/><use transform="matrix(0.06172839506172839,0,0,0.06172839506172839,81.41975308641976,0)" xlink:href="#T"/><use transform="matrix(0.06172839506172839,0,0,0.06172839506172839,93.76543209876544,0)" xlink:href="#Z"/><use transform="matrix(0.06172839506172839,0,0,0.06172839506172839,106.11111111111113,0)" xlink:href="#aq"/><use transform="matrix(0.06172839506172839,0,0,0.06172839506172839,112.28395061728396,0)" xlink:href="#U"/></g><g id="C"><use transform="matrix(0.06172839506172839,0,0,0.06172839506172839,0,0)" xlink:href="#aw"/><use transform="matrix(0.06172839506172839,0,0,0.06172839506172839,12.345679012345679,0)" xlink:href="#Q"/><use transform="matrix(0.06172839506172839,0,0,0.06172839506172839,19.691358024691358,0)" xlink:href="#ar"/><use transform="matrix(0.06172839506172839,0,0,0.06172839506172839,32.03703703703704,0)" xlink:href="#ao"/><use transform="matrix(0.06172839506172839,0,0,0.06172839506172839,43.14814814814815,0)" xlink:href="#W"/><use transform="matrix(0.06172839506172839,0,0,0.06172839506172839,48.0246913580247,0)" xlink:href="#aq"/><use transform="matrix(0.06172839506172839,0,0,0.06172839506172839,54.19753086419754,0)" xlink:href="#ax"/><use transform="matrix(0.06172839506172839,0,0,0.06172839506172839,63.64197530864199,0)" xlink:href="#au"/><use transform="matrix(0.06172839506172839,0,0,0.06172839506172839,69.81481481481482,0)" xlink:href="#ab"/><use transform="matrix(0.06172839506172839,0,0,0.06172839506172839,88.27160493827161,0)" xlink:href="#R"/><use transform="matrix(0.06172839506172839,0,0,0.06172839506172839,100.61728395061729,0)" xlink:href="#ao"/><use transform="matrix(0.06172839506172839,0,0,0.06172839506172839,111.7283950617284,0)" xlink:href="#T"/></g><g id="D"><use transform="matrix(0.06172839506172839,0,0,0.06172839506172839,0,0)" xlink:href="#ap"/><use transform="matrix(0.06172839506172839,0,0,0.06172839506172839,12.345679012345679,0)" xlink:href="#V"/><use transform="matrix(0.06172839506172839,0,0,0.06172839506172839,17.22222222222222,0)" xlink:href="#ar"/><use transform="matrix(0.06172839506172839,0,0,0.06172839506172839,29.5679012345679,0)" xlink:href="#S"/><use transform="matrix(0.06172839506172839,0,0,0.06172839506172839,40.67901234567901,0)" xlink:href="#T"/></g><g id="E"><use transform="matrix(0.06172839506172839,0,0,0.06172839506172839,0,0)" xlink:href="#ap"/><use transform="matrix(0.06172839506172839,0,0,0.06172839506172839,12.345679012345679,0)" xlink:href="#T"/><use transform="matrix(0.06172839506172839,0,0,0.06172839506172839,24.691358024691358,0)" xlink:href="#W"/><use transform="matrix(0.06172839506172839,0,0,0.06172839506172839,29.5679012345679,0)" xlink:href="#S"/><use transform="matrix(0.06172839506172839,0,0,0.06172839506172839,40.67901234567901,0)" xlink:href="#T"/></g><g id="F"><use transform="matrix(0.06172839506172839,0,0,0.06172839506172839,0,0)" xlink:href="#aq"/><use transform="matrix(0.06172839506172839,0,0,0.06172839506172839,6.172839506172839,0)" xlink:href="#aA"/><use transform="matrix(0.06172839506172839,0,0,0.06172839506172839,18.51851851851852,0)" xlink:href="#T"/><use transform="matrix(0.06172839506172839,0,0,0.06172839506172839,30.864197530864196,0)" xlink:href="#Q"/><use transform="matrix(0.06172839506172839,0,0,0.06172839506172839,38.20987654320987,0)" xlink:href="#T"/></g><path fill="#3a414a" d="M87 75C49 33 22-17 22-94c0-76 28-126 65-167h31c-38 41-64 92-64 168S80 34 118 75H87" id="aC"/><path fill="#3a414a" d="M141 0L90-78 38 0H4l68-98-65-92h35l48 74 47-74h35l-64 92 68 98h-35" id="aD"/><g id="G"><use transform="matrix(0.06172839506172839,0,0,0.06172839506172839,0,0)" xlink:href="#aC"/><use transform="matrix(0.06172839506172839,0,0,0.06172839506172839,7.345679012345679,0)" xlink:href="#aD"/></g><g id="H"><use transform="matrix(0.06172839506172839,0,0,0.06172839506172839,0,0)" xlink:href="#W"/><use transform="matrix(0.06172839506172839,0,0,0.06172839506172839,4.876543209876543,0)" xlink:href="#az"/></g><g id="I"><use transform="matrix(0.06172839506172839,0,0,0.06172839506172839,0,0)" xlink:href="#ap"/><use transform="matrix(0.06172839506172839,0,0,0.06172839506172839,12.345679012345679,0)" xlink:href="#V"/><use transform="matrix(0.06172839506172839,0,0,0.06172839506172839,17.22222222222222,0)" xlink:href="#ar"/><use transform="matrix(0.06172839506172839,0,0,0.06172839506172839,29.5679012345679,0)" xlink:href="#ax"/><use transform="matrix(0.06172839506172839,0,0,0.06172839506172839,40.67901234567901,0)" xlink:href="#T"/><use transform="matrix(0.06172839506172839,0,0,0.06172839506172839,53.02469135802469,0)" xlink:href="#Q"/></g><g id="J"><use transform="matrix(0.06172839506172839,0,0,0.06172839506172839,0,0)" xlink:href="#W"/><use transform="matrix(0.06172839506172839,0,0,0.06172839506172839,4.876543209876543,0)" xlink:href="#U"/></g><g id="K"><use transform="matrix(0.06172839506172839,0,0,0.06172839506172839,0,0)" xlink:href="#Q"/><use transform="matrix(0.06172839506172839,0,0,0.06172839506172839,7.345679012345679,0)" xlink:href="#T"/><use transform="matrix(0.06172839506172839,0,0,0.06172839506172839,19.691358024691358,0)" xlink:href="#Y"/><use transform="matrix(0.06172839506172839,0,0,0.06172839506172839,32.03703703703704,0)" xlink:href="#au"/></g><use transform="matrix(0.06172839506172839,0,0,0.06172839506172839,0,0)" xlink:href="#R" id="L"/><g id="M"><use transform="matrix(0.06172839506172839,0,0,0.06172839506172839,0,0)" xlink:href="#W"/><use transform="matrix(0.06172839506172839,0,0,0.06172839506172839,4.876543209876543,0)" xlink:href="#az"/></g><g id="N"><use transform="matrix(0.06172839506172839,0,0,0.06172839506172839,0,0)" xlink:href="#W"/><use transform="matrix(0.06172839506172839,0,0,0.06172839506172839,4.876543209876543,0)" xlink:href="#U"/></g><path fill="#3a414a" d="M33-261c38 41 65 92 65 168S71 34 33 75H2C39 34 66-17 66-93S39-220 2-261h31" id="aE"/><g id="O"><use transform="matrix(0.06172839506172839,0,0,0.06172839506172839,0,0)" xlink:href="#aB"/><use transform="matrix(0.06172839506172839,0,0,0.06172839506172839,12.345679012345679,0)" xlink:href="#V"/><use transform="matrix(0.06172839506172839,0,0,0.06172839506172839,17.22222222222222,0)" xlink:href="#aa"/><use transform="matrix(0.06172839506172839,0,0,0.06172839506172839,29.5679012345679,0)" xlink:href="#T"/><use transform="matrix(0.06172839506172839,0,0,0.06172839506172839,41.913580246913575,0)" xlink:href="#aE"/></g></defs></g></svg>
